<?xml version="1.0" standalone="no"?>
<!DOCTYPE svg PUBLIC "-//W3C//DTD SVG 20010904//EN"
 "http://www.w3.org/TR/2001/REC-SVG-20010904/DTD/svg10.dtd">
<svg version="1.0" xmlns="http://www.w3.org/2000/svg"
 width="512.000000pt" height="512.000000pt" viewBox="0 0 512.000000 512.000000"
 preserveAspectRatio="xMidYMid meet">
<metadata>
Created by potrace 1.14, written by Peter Selinger 2001-2017
</metadata>
<g transform="translate(0.000000,512.000000) scale(0.100000,-0.100000)"
fill="#000000" stroke="none">
<path d="M2411 5104 c-172 -36 -366 -133 -504 -252 -117 -101 -170 -154 -251
-246 -28 -32 -56 -64 -61 -70 -24 -25 -156 -207 -213 -292 -129 -193 -309
-529 -397 -739 -6 -16 -21 -52 -33 -80 -99 -238 -153 -432 -148 -532 8 -129
165 -393 415 -698 36 -44 74 -89 83 -99 10 -11 18 -23 18 -27 0 -4 -55 -9
-122 -11 -132 -4 -165 -14 -221 -67 -49 -45 -70 -105 -75 -216 -4 -88 -7 -101
-26 -114 -23 -16 -171 -164 -199 -199 -95 -121 -257 -420 -257 -474 0 -14 10
-36 23 -48 l23 -22 -31 -90 c-30 -87 -33 -91 -71 -104 -21 -8 -40 -14 -40 -14
-4 0 -25 -57 -28 -75 -2 -11 -11 -47 -19 -80 -16 -59 -21 -86 -33 -155 -4 -19
-7 -39 -8 -45 -17 -80 -27 -190 -22 -219 9 -49 65 -110 114 -124 30 -9 590
-12 2241 -12 2181 0 2202 0 2244 20 98 47 113 126 67 360 -6 30 -13 69 -16 85
-2 17 -7 38 -10 47 -3 9 -7 25 -9 35 -12 55 -58 211 -88 303 -79 237 -176 428
-299 588 -52 68 -161 182 -211 219 -26 20 -27 25 -30 124 -2 60 -9 115 -16
129 -27 52 -63 90 -109 117 -43 26 -58 28 -175 33 -128 5 -128 5 -110 25 64
70 249 311 326 425 120 180 179 302 183 385 1 34 -2 79 -7 101 -5 21 -12 50
-15 64 -29 140 -161 466 -299 735 -155 303 -185 345 -240 331 -22 -6 -30 2
-80 79 -52 80 -54 87 -40 108 14 22 14 54 -1 80 -10 16 -104 137 -124 159 -8
9 -40 45 -70 80 -131 151 -328 310 -480 385 -76 38 -210 87 -210 77 0 -2 -12
1 -27 7 -43 17 -239 19 -312 3z"/>
</g>
</svg>
